<svg width="246" height="129" viewBox="0 0 246 129" fill="none" xmlns="http://www.w3.org/2000/svg">
<rect x="1" y="0.773438" width="245" height="128" fill="white"/>
<path d="M57.418 94.3691H60.265C62.3155 94.3691 63.5841 95.4252 63.5841 97.1802C63.5841 98.3106 63.0383 99.1584 62.0942 99.6046L65.015 103.769H62.758L60.2798 99.9764H59.3062V103.769H57.418V94.3691ZM59.3062 95.9903V98.3403H60.3683C61.1649 98.3403 61.6369 97.909 61.6369 97.1505C61.6369 96.4365 61.1649 95.9903 60.3683 95.9903H59.3062Z" fill="black"/>
<path d="M66.1947 94.3697H71.6233V95.9909H68.0829V98.1624H71.0922V99.7836H68.0829V102.134H71.6233V103.755H66.1947V94.3697ZM68.0239 93.5665L69.5286 91.752H71.4758L69.7498 93.5665H68.0239Z" fill="black"/>
<path d="M73.8219 94.3691H76.8902C78.9407 94.3691 80.1946 95.4252 80.1946 97.1802C80.1946 98.9055 78.9407 99.9764 76.8902 99.9764H75.7101V103.769H73.8219V94.3691ZM75.7101 95.9903V98.3403H76.9787C77.7753 98.3403 78.2621 97.909 78.2621 97.1505C78.2621 96.4365 77.7901 95.9903 76.9787 95.9903H75.7101Z" fill="black"/>
<path d="M87.2462 94.3691H89.1344V100.081C89.1344 102.55 87.7035 104.022 85.358 104.022C83.0272 104.022 81.5963 102.55 81.5963 100.081V94.3691H83.4845V100.244C83.4845 101.508 84.1926 102.237 85.3727 102.237C86.5233 102.237 87.2462 101.494 87.2462 100.244V94.3691Z" fill="black"/>
<path d="M91.479 94.3691H94.1343C96.0815 94.3691 97.2469 95.3359 97.2469 96.9125C97.2469 97.671 96.9076 98.3255 96.2585 98.7717C97.2469 99.2179 97.7927 100.021 97.7927 101.003C97.7927 102.713 96.4798 103.769 94.3261 103.769H91.479V94.3691ZM93.3672 95.9903V98.0429H94.1638C94.8866 98.0429 95.2997 97.6859 95.2997 97.0166C95.2997 96.3919 94.8866 95.9903 94.1638 95.9903H93.3672ZM93.3672 99.679V102.133H94.4293C95.3144 102.133 95.8455 101.657 95.8455 100.884C95.8455 100.11 95.3144 99.679 94.4293 99.679H93.3672Z" fill="black"/>
<path d="M99.7257 94.3691H101.614V102.029H105.154V103.754H99.7257V94.3691Z" fill="black"/>
<path d="M106.821 94.3691H108.709V103.769H106.821V94.3691Z" fill="black"/>
<path d="M121.086 104.424C121.292 104.424 121.558 104.394 121.75 104.32V105.926C121.44 106.045 121.174 106.104 120.761 106.104C119.729 106.104 118.77 105.673 117.84 104.87L116.734 103.873C116.336 103.978 115.908 104.037 115.451 104.037C112.515 104.037 110.494 101.761 110.494 99.0693C110.494 96.3921 112.5 94.1016 115.451 94.1016C118.371 94.1016 120.392 96.3772 120.392 99.0693C120.392 100.646 119.699 102.074 118.549 102.981L119.109 103.516C119.847 104.171 120.481 104.424 121.086 104.424ZM118.46 99.0693C118.46 97.2696 117.206 95.8864 115.465 95.8864C113.71 95.8864 112.456 97.2696 112.456 99.0693C112.456 100.869 113.71 102.252 115.465 102.252C117.206 102.237 118.46 100.854 118.46 99.0693Z" fill="black"/>
<path d="M127.71 94.3691H129.598V100.081C129.598 102.55 128.167 104.022 125.821 104.022C123.491 104.022 122.06 102.55 122.06 100.081V94.3691H123.948V100.244C123.948 101.508 124.656 102.237 125.836 102.237C126.987 102.237 127.71 101.494 127.71 100.244V94.3691Z" fill="black"/>
<path d="M131.944 94.3691H137.372V95.9903H133.832V98.1619H136.841V99.7831H133.832V102.133H137.372V103.754H131.944V94.3691Z" fill="black"/>
<path d="M145.749 94.3984H151.178V96.0196H147.637V98.1912H150.647V99.8124H147.637V103.784H145.749V94.3984Z" fill="black"/>
<path d="M152.844 94.3984H155.691C157.741 94.3984 159.01 95.4545 159.01 97.2095C159.01 98.3399 158.464 99.1877 157.52 99.6339L160.441 103.798H158.184L155.706 100.006H154.732V103.798H152.844V94.3984ZM154.732 96.0345V98.3845H155.794C156.591 98.3845 157.063 97.9532 157.063 97.1946C157.063 96.4807 156.591 96.0345 155.794 96.0345H154.732Z" fill="black"/>
<path d="M164.366 94.3984H166.844L170.37 103.798H168.364L167.479 101.359H163.746L162.861 103.798H160.855L164.366 94.3984ZM166.888 99.738L165.605 96.213L164.322 99.738H166.888Z" fill="black"/>
<path d="M171.815 94.3984H174.235L178.395 101.121V94.3984H180.283V103.798H177.864L173.704 97.0459V103.798H171.815V94.3984Z" fill="black"/>
<path d="M189.488 100.988L190.978 102.148C190.255 103.144 189.134 103.843 187.777 104.007L186.626 105.955H184.944L186.11 103.977C183.69 103.546 182.097 101.478 182.097 99.0986C182.097 96.4214 184.104 94.1309 187.054 94.1309C188.75 94.1309 190.122 94.8894 190.978 96.0347L189.488 97.1948C188.957 96.4362 188.116 95.9008 187.054 95.9008C185.298 95.9008 184.044 97.284 184.044 99.0837C184.044 100.883 185.298 102.267 187.054 102.267C188.116 102.282 188.957 101.761 189.488 100.988Z" fill="black"/>
<path d="M194.902 94.3984H197.38L200.906 103.798H198.9L198.015 101.359H194.282L193.397 103.798H191.391L194.902 94.3984ZM197.425 99.738L196.141 96.213L194.858 99.738H197.425Z" fill="black"/>
<path d="M202.351 94.3984H204.24V103.798H202.351V94.3984Z" fill="black"/>
<path d="M207.381 101.226C207.942 101.955 208.68 102.386 209.447 102.386C210.199 102.386 210.642 101.985 210.642 101.301C210.642 99.6199 206.378 99.9917 206.378 96.8683C206.378 95.381 207.588 94.1465 209.358 94.1465C210.76 94.1465 211.836 94.7712 212.618 95.7231L211.232 96.9724C210.686 96.2585 210.081 95.8123 209.373 95.8123C208.724 95.8123 208.296 96.2436 208.296 96.794C208.296 98.4747 212.559 98.0879 212.559 101.256C212.53 102.996 211.173 104.067 209.476 104.067C207.912 104.067 206.836 103.487 206.01 102.49L207.381 101.226Z" fill="black"/>
<path d="M214.535 94.3984H219.964V96.0196H216.424V98.1912H219.433V99.8124H216.424V102.162H219.964V103.784H214.535V94.3984Z" fill="black"/>
<path d="M37.4938 102.679C37.5929 102.579 37.692 102.468 37.7911 102.368C37.9783 102.157 38.1544 101.957 38.3747 101.768C38.4407 101.713 38.5068 101.657 38.5619 101.613C38.5839 101.591 38.5839 101.557 38.5949 101.546C38.5068 101.58 38.4517 101.657 38.3636 101.691C38.3416 101.691 38.3306 101.668 38.3416 101.657C38.4077 101.613 38.4627 101.568 38.5288 101.513H38.5178C38.4958 101.513 38.4958 101.491 38.4958 101.48C38.2645 101.446 38.0994 101.602 37.9342 101.746C37.9012 101.768 37.8681 101.724 37.8461 101.724C37.5818 101.813 37.3947 102.046 37.1304 102.146C37.1304 102.124 37.1304 102.124 37.1304 102.112C37.0203 102.146 36.9212 102.212 36.8111 102.235C36.6569 102.268 36.5138 102.257 36.3706 102.257C36.1614 102.279 35.9522 102.323 35.7319 102.368C35.7209 102.368 35.7209 102.368 35.7099 102.368C35.5998 102.401 35.4897 102.446 35.3796 102.501C35.3796 102.501 35.3686 102.501 35.3686 102.512C35.3576 102.523 35.3466 102.534 35.3466 102.545C35.3135 102.59 35.2805 102.623 35.2254 102.645C35.1153 102.701 35.0272 102.801 34.9391 102.878C34.9281 102.89 34.9171 102.89 34.9061 102.89C34.807 102.978 34.7189 103.067 34.6198 103.156C34.6088 103.167 34.5868 103.167 34.5648 103.167C34.5648 103.156 34.5758 103.156 34.5758 103.145C34.5868 103.123 34.6088 103.101 34.6198 103.067C34.6418 103.045 34.6528 103.012 34.6749 102.99C34.6969 102.956 34.7189 102.912 34.7519 102.878C34.763 102.867 34.7519 102.856 34.7519 102.856C34.7409 102.845 34.7409 102.845 34.7299 102.845C34.818 102.756 34.9171 102.69 35.0272 102.623C35.0162 102.623 34.9942 102.623 35.0052 102.601C35.0162 102.59 35.0272 102.568 35.0382 102.557C35.0382 102.557 35.0382 102.545 35.0492 102.545L35.0382 102.534C35.0052 102.557 34.9832 102.568 34.9612 102.59C34.9171 102.623 34.8841 102.701 34.818 102.701C34.818 102.701 34.807 102.701 34.796 102.701C34.785 102.701 34.785 102.701 34.774 102.69C34.774 102.69 34.774 102.679 34.785 102.679L34.796 102.668C34.796 102.668 34.796 102.656 34.807 102.656C34.807 102.645 34.818 102.645 34.818 102.634L34.829 102.623C34.84 102.612 34.84 102.601 34.851 102.59C34.851 102.579 34.8621 102.579 34.8621 102.568C34.8731 102.557 34.8731 102.545 34.8841 102.534C34.8951 102.523 34.8841 102.512 34.8731 102.501C34.9061 102.457 34.9501 102.423 34.9942 102.401C35.0603 102.368 35.1263 102.323 35.1924 102.29C35.2034 102.279 35.2144 102.268 35.2254 102.268C35.1263 102.301 35.0382 102.346 34.9501 102.401C34.9501 102.401 34.9281 102.412 34.9171 102.412C34.9171 102.412 34.8951 102.423 34.8731 102.401V102.39C34.8951 102.357 34.9391 102.334 34.9832 102.301C35.0052 102.301 35.0162 102.301 35.0162 102.323C35.5778 101.879 36.3376 101.99 36.9872 101.757C37.0423 101.724 37.0973 101.691 37.1414 101.646C37.2295 101.613 37.2956 101.524 37.4057 101.469C37.5488 101.357 37.6479 101.235 37.703 101.069C37.703 101.047 37.6809 101.036 37.6809 101.036C37.4497 101.28 37.1965 101.48 36.9102 101.613C36.5468 101.802 36.1394 101.768 35.754 101.824C35.776 101.79 35.809 101.79 35.8421 101.79C35.8421 101.735 35.8751 101.724 35.9081 101.679C35.9302 101.679 35.9412 101.679 35.9632 101.679C35.9852 101.679 35.9852 101.646 35.9962 101.646C36.0293 101.646 36.0843 101.624 36.0623 101.624C36.0072 101.557 35.9081 101.679 35.82 101.624C35.8531 101.591 35.8421 101.535 35.8751 101.513C35.8971 101.513 35.9302 101.513 35.9412 101.513C35.9412 101.48 35.9742 101.446 35.9742 101.446C36.2385 101.291 36.4807 101.169 36.723 101.024C36.6679 101.024 36.6349 101.08 36.5798 101.047C36.6129 101.047 36.5798 100.991 36.6129 100.991C36.8 100.936 36.9652 100.836 37.1524 100.758C37.0863 100.758 37.0313 100.813 36.9652 100.758C36.9982 100.736 37.0203 100.702 37.0753 100.702C37.0753 100.68 37.0753 100.669 37.0753 100.647C37.0753 100.625 37.0974 100.625 37.1084 100.625C37.0863 100.625 37.0753 100.603 37.0753 100.603C37.0973 100.569 37.1414 100.58 37.1854 100.547C37.1634 100.547 37.1304 100.547 37.1304 100.525C37.1854 100.458 37.2735 100.436 37.3616 100.414C37.3396 100.38 37.2956 100.414 37.2956 100.38C37.2956 100.358 37.3176 100.358 37.3286 100.358C37.3066 100.358 37.3066 100.358 37.2956 100.358C37.2625 100.336 37.2735 100.303 37.2735 100.292C37.3836 100.17 37.3836 100.014 37.4277 99.8698C37.4057 99.8698 37.3947 99.8698 37.3947 99.8476C37.2185 100.036 36.9432 100.114 36.6789 100.181C36.6569 100.181 36.6129 100.181 36.5908 100.181C36.5027 100.214 36.3816 100.214 36.2935 100.158C36.2275 100.125 36.1834 100.07 36.1173 100.014C35.9742 99.9253 35.8421 99.8587 35.6769 99.8032C35.2364 99.6588 34.785 99.5922 34.3335 99.6144C34.5207 99.5034 34.7409 99.5034 34.9391 99.4368C35.2364 99.348 35.5117 99.2481 35.8311 99.2592C35.776 99.237 35.7099 99.2592 35.6549 99.2592C35.4126 99.237 35.1704 99.3147 34.9061 99.3702C34.7299 99.4035 34.5758 99.4812 34.3996 99.5145C34.2895 99.5478 34.2454 99.6588 34.1243 99.6366C34.1243 99.6366 34.1243 99.6033 34.1243 99.5811C34.3005 99.3702 34.5097 99.1592 34.785 99.137C35.1043 99.0815 35.3906 99.137 35.7099 99.1703C35.9412 99.1925 36.1504 99.237 36.3706 99.2925C36.4587 99.2925 36.4807 99.4368 36.5468 99.4479C36.6569 99.4812 36.756 99.4479 36.8661 99.5145C36.8661 99.4812 36.8441 99.4479 36.8661 99.4035C36.9322 99.3369 37.0203 99.4257 37.0973 99.3813C37.2405 99.2925 36.9762 99.137 36.9102 99.0149C36.9102 98.9927 36.9322 98.9816 36.9322 98.9816C37.0753 99.1037 37.1744 99.2481 37.3506 99.3369C37.4387 99.3702 37.6479 99.4257 37.6149 99.3147C37.5268 99.1259 37.3506 98.9594 37.2185 98.7818C37.2185 98.7596 37.2185 98.7263 37.2185 98.7151C37.1854 98.7151 37.1854 98.6929 37.1634 98.6818C37.1634 98.6596 37.1634 98.6263 37.1634 98.6152C37.0974 98.5819 37.1084 98.5042 37.0753 98.4598C37.0203 98.371 37.0533 98.2489 37.0203 98.1378C36.9872 98.0268 36.9652 97.9491 36.9542 97.8381C36.8991 97.5383 36.8331 97.2719 36.8 96.9943C36.767 96.6612 36.9872 96.3948 37.1524 96.095C37.2735 95.8841 37.4167 95.6731 37.6369 95.5288C37.692 95.3179 37.8241 95.1402 37.9672 94.9626C38.1104 94.7961 38.3416 94.685 38.5068 94.6073C38.749 94.4963 38.9693 94.4297 38.9693 94.4297H27V103.744H35.4787C35.809 103.5 36.1394 103.389 36.6018 103.156C36.8331 103.078 37.3286 102.845 37.4938 102.679ZM34.818 101.413C34.785 101.413 34.7079 101.435 34.7299 101.391C34.7519 101.302 34.8731 101.302 34.9391 101.269C34.9722 101.246 35.0272 101.213 35.0603 101.235C35.0933 101.291 35.1484 101.269 35.1814 101.302C35.0823 101.413 34.9391 101.357 34.818 101.413ZM32.1423 101.024C32.1423 101.024 32.1202 101.002 32.1202 100.991C32.3515 100.691 32.5167 100.414 32.6818 100.092C32.9131 99.9697 33.1003 99.7921 33.2764 99.6033C33.5737 99.2814 33.8821 99.0038 34.2564 98.8262C34.3996 98.7707 34.5758 98.7929 34.7079 98.8484C34.6528 98.915 34.5648 98.9039 34.4987 98.9594C34.4767 98.9594 34.4657 98.9594 34.4436 98.9372C34.4657 98.915 34.4657 98.9039 34.4657 98.8817C34.2895 99.0704 34.0472 99.1592 33.9041 99.3924C33.794 99.57 33.7279 99.7921 33.5077 99.8476C33.4416 99.8698 33.5297 99.7921 33.4856 99.8143C32.9461 100.147 32.5607 100.547 32.1423 101.024ZM33.5958 99.8698C33.5737 99.9031 33.5627 99.9142 33.5407 99.9364C33.5187 99.9697 33.5077 99.9919 33.4746 100.003C33.4526 100.003 33.4416 100.003 33.4416 99.9808C33.4636 99.9142 33.5077 99.8365 33.5847 99.8254C33.5958 99.8254 33.5958 99.8476 33.5958 99.8698ZM34.3996 102.501C34.3886 102.523 34.3776 102.534 34.3555 102.557C34.3776 102.557 34.3886 102.568 34.3776 102.579C34.3335 102.612 34.3005 102.656 34.2454 102.668C34.2454 102.668 34.2344 102.668 34.2234 102.668C34.2014 102.69 34.1794 102.712 34.1573 102.734C34.1353 102.756 34.0362 102.734 34.0692 102.712C34.1133 102.668 34.1573 102.634 34.2014 102.59C34.2234 102.568 34.2564 102.545 34.2785 102.523C34.2895 102.512 34.3005 102.49 34.3115 102.479C34.3225 102.479 34.4216 102.468 34.3996 102.501ZM34.0913 102.357C34.0252 102.401 33.9591 102.457 33.8931 102.49C33.816 102.534 33.7389 102.568 33.6618 102.601C33.6508 102.59 33.6398 102.59 33.6288 102.59C33.5627 102.623 33.5077 102.679 33.4526 102.723C33.4416 102.734 33.4416 102.734 33.4306 102.745C33.4196 102.756 33.4086 102.756 33.4086 102.767C33.3976 102.779 33.3865 102.79 33.3755 102.812C33.3645 102.823 33.3645 102.834 33.3535 102.834C33.3425 102.845 33.3095 102.845 33.3205 102.823C33.3095 102.823 33.2985 102.834 33.2874 102.834C33.2764 102.834 33.2654 102.845 33.2654 102.845H33.2544H33.2434C33.2214 102.867 33.1994 102.878 33.1773 102.901C33.1443 102.934 33.1113 102.967 33.0782 103.012C33.0782 103.012 33.0782 103.012 33.0782 103.023C33.0782 103.023 33.0782 103.023 33.0672 103.034C33.0672 103.045 33.0562 103.045 33.0562 103.056L33.0452 103.067C33.0452 103.067 33.0452 103.056 33.0342 103.056V103.045C33.0342 103.034 33.0232 103.023 33.0232 103.012V103.001C33.0452 102.978 33.0562 102.956 33.0782 102.934C33.0892 102.923 33.0892 102.923 33.1003 102.912C33.1113 102.901 33.1223 102.89 33.1333 102.878L33.1443 102.867C33.1663 102.845 33.1773 102.823 33.1994 102.79C33.1994 102.79 33.1994 102.779 33.2104 102.779C33.2214 102.767 33.2214 102.756 33.2324 102.745C33.2434 102.734 33.2434 102.723 33.2544 102.712C33.2544 102.712 33.2544 102.712 33.2544 102.701C33.2654 102.69 33.2654 102.679 33.2764 102.656V102.645C33.2764 102.634 33.2764 102.634 33.2764 102.623C33.2764 102.612 33.2764 102.601 33.2874 102.601V102.59C33.3095 102.557 33.3315 102.523 33.3535 102.49C33.3535 102.49 33.3535 102.49 33.3425 102.49C33.3205 102.501 33.2985 102.523 33.2764 102.545C33.2544 102.557 33.2214 102.534 33.2434 102.523C33.2544 102.512 33.2654 102.501 33.2874 102.49C33.3205 102.457 33.3425 102.423 33.3755 102.401C33.3976 102.39 33.4086 102.379 33.4306 102.357C33.4306 102.357 33.4306 102.357 33.4416 102.346C33.4526 102.334 33.4636 102.312 33.4856 102.301C33.6508 102.135 33.9371 102.146 34.1573 102.046C34.2454 102.013 34.3445 102.068 34.4326 102.046C34.4877 102.046 34.5427 102.046 34.5868 102.079C34.3776 102.168 34.2344 102.268 34.0913 102.357ZM34.4436 101.135C34.4216 101.113 34.4987 101.135 34.5097 101.102C34.4546 101.102 34.4216 101.102 34.3666 101.102C34.3445 101.102 34.3445 101.08 34.3445 101.069C34.2564 101.091 34.1573 101.124 34.0692 101.135C33.9481 101.169 33.838 101.258 33.7059 101.291C33.5187 101.357 33.3535 101.524 33.1443 101.591C33.1223 101.591 33.1223 101.568 33.1223 101.557C33.1443 101.502 33.2104 101.491 33.2434 101.435C33.2434 101.413 33.2434 101.402 33.2214 101.402C33.3645 101.213 33.5517 101.102 33.7279 100.947C33.7279 100.924 33.7279 100.913 33.7279 100.891C33.783 100.825 33.871 100.78 33.9041 100.702C33.9261 100.647 33.9922 100.58 34.0803 100.547C34.0582 100.525 34.0252 100.525 34.0252 100.492C33.9591 100.492 33.8821 100.525 33.816 100.469C33.849 100.436 33.8821 100.414 33.9261 100.403C33.9151 100.403 33.8931 100.392 33.8821 100.38C33.86 100.347 33.9151 100.303 33.9701 100.292C34.0362 100.269 34.1243 100.269 34.1794 100.225C34.0582 100.203 33.9151 100.258 33.794 100.192C33.8821 99.9586 34.0252 99.7699 34.2344 99.6588C34.2564 99.6588 34.2895 99.6588 34.2895 99.681C34.2895 99.7699 34.2344 99.8365 34.1463 99.8587C34.2895 99.892 34.4216 99.892 34.5648 99.9697C34.5427 100.003 34.5097 99.9919 34.4987 99.9919C34.5868 100.047 34.6859 100.014 34.774 100.081C34.7189 100.136 34.6639 100.081 34.6198 100.081C35.1594 100.236 35.7319 100.358 36.1944 100.714C35.809 100.902 35.4126 100.991 34.9942 101.08C34.9391 101.08 34.9061 101.08 34.851 101.058C34.851 101.08 34.851 101.113 34.829 101.113C34.763 101.113 34.7079 101.113 34.6528 101.147C34.6088 101.169 34.4987 101.18 34.4436 101.135Z" fill="#000091"/>
<path d="M52.3926 94.4629H42.4604C42.4604 94.4629 42.4824 94.4629 42.5595 94.5073C42.6366 94.5517 42.7467 94.6072 42.8128 94.6405C42.9449 94.7071 43.066 94.796 43.1431 94.9181C43.1761 94.9736 43.2312 95.0735 43.1982 95.1512C43.1651 95.24 43.1431 95.3844 43.055 95.4177C42.9449 95.4732 42.8128 95.4732 42.6917 95.451C42.6256 95.451 42.5485 95.4288 42.4824 95.4177C42.7467 95.5287 42.989 95.6508 43.1651 95.8951C43.1872 95.9284 43.2532 95.9506 43.3193 95.9506C43.3413 95.9506 43.3413 95.9839 43.3413 96.0061C43.3083 96.0394 43.2752 96.0616 43.2863 96.1171C43.3083 96.1171 43.3193 96.1171 43.3413 96.1171C43.4294 96.0838 43.4074 95.9062 43.5285 95.9617C43.6166 96.0172 43.6496 96.1393 43.5946 96.2281C43.5285 96.2948 43.4514 96.3503 43.3854 96.4058C43.3633 96.4391 43.3633 96.4946 43.3854 96.5279C43.4404 96.5945 43.4514 96.6722 43.4735 96.7388C43.5285 96.861 43.5395 97.0053 43.5946 97.1274C43.6606 97.3939 43.7377 97.6603 43.7157 97.9157C43.7157 98.06 43.6496 98.1821 43.6937 98.3154C43.7267 98.4597 43.8148 98.5596 43.8809 98.6817C43.9469 98.7928 44.024 98.8594 44.0681 98.9593C44.1782 99.1369 44.3654 99.3146 44.2773 99.5255C44.2222 99.6476 44.035 99.6365 43.9139 99.7031C43.8038 99.792 43.8919 99.9363 43.9469 100.025C44.035 100.181 43.8368 100.292 43.7157 100.347C43.7487 100.403 43.8258 100.38 43.8368 100.414C43.8588 100.503 43.9469 100.558 43.8919 100.647C43.8258 100.758 43.6166 100.802 43.7157 100.969C43.7818 101.091 43.7377 101.224 43.6937 101.357C43.6386 101.513 43.5065 101.591 43.3744 101.624C43.2642 101.657 43.1431 101.657 43.044 101.646C43.011 101.624 42.9779 101.613 42.9339 101.613C42.6366 101.579 42.3393 101.491 42.042 101.491C41.9539 101.513 41.8658 101.524 41.7997 101.557C41.7227 101.613 41.6456 101.679 41.5905 101.746C41.5795 101.757 41.5685 101.779 41.5575 101.79C41.5465 101.801 41.5465 101.813 41.5355 101.813C41.5355 101.824 41.5245 101.824 41.5245 101.835C41.4694 101.901 41.4254 101.968 41.3923 102.035C41.3923 102.035 41.3923 102.046 41.3813 102.046C41.3813 102.057 41.3703 102.057 41.3703 102.068C41.3152 102.179 41.2712 102.279 41.2382 102.39C41.117 102.79 41.1721 103.134 41.2492 103.223C41.2712 103.245 41.8218 103.422 42.2072 103.589C42.3833 103.667 42.5155 103.733 42.6146 103.8H52.3706V94.4629H52.3926Z" fill="#E1000F"/>
<path d="M43.055 97.861C43.1211 97.8832 43.2312 97.8832 43.2312 97.9165C43.1981 98.0608 42.9889 98.0941 42.8788 98.2385H42.8237C42.7686 98.2718 42.7907 98.3606 42.7356 98.3606C42.6805 98.3384 42.6255 98.3606 42.5814 98.3828C42.6475 98.4494 42.7356 98.505 42.8457 98.4939C42.8678 98.4939 42.9008 98.5272 42.9008 98.5605C42.9008 98.5605 42.9228 98.5605 42.9338 98.5383C42.9559 98.5383 42.9669 98.5383 42.9669 98.5605V98.6271C42.9118 98.6937 42.8237 98.6604 42.7576 98.6826C42.9008 98.7159 43.033 98.7159 43.1541 98.6826C43.2642 98.6493 43.1541 98.4717 43.2202 98.3828C43.1871 98.3828 43.2202 98.3273 43.1871 98.3273C43.2202 98.294 43.2532 98.2385 43.2973 98.2163C43.3303 98.2163 43.3854 98.1941 43.4074 98.1607C43.4074 98.1274 43.3413 98.1052 43.3523 98.0719C43.4624 98.0053 43.5395 97.8943 43.5065 97.7943C43.4845 97.7388 43.3523 97.7388 43.2642 97.7055C43.1761 97.6722 43.077 97.7055 42.9669 97.7277C42.8788 97.7277 42.7907 97.7832 42.7026 97.7943C42.5814 97.8276 42.4713 97.9054 42.3722 97.972C42.4933 97.9165 42.6145 97.9054 42.7576 97.861C42.8567 97.861 42.9448 97.8276 43.055 97.861Z" fill="#9D9D9C"/>
<rect x="0.965088" y="0.443359" width="245.035" height="84.1837" fill="white"/>
<path d="M33.7558 69.4019C32.2304 69.4019 31.2498 68.6062 30.6505 67.7045V71.6828H29.3975V61.2861H30.596V62.8774C31.2498 61.9226 32.2304 61.127 33.7014 61.127C35.6626 61.127 37.5694 62.6122 37.5694 65.2644C37.6239 67.8636 35.7171 69.4019 33.7558 69.4019ZM33.5379 62.1878C32.0125 62.1878 30.596 63.4079 30.596 65.2644C30.596 67.121 32.0125 68.341 33.5379 68.341C35.1178 68.341 36.4253 67.2271 36.4253 65.2644C36.4253 63.4079 35.0633 62.1878 33.5379 62.1878Z" fill="#1F3D87"/>
<path d="M41.1098 69.2429H39.9113V61.2862H41.1098V63.355C41.7091 62.0289 42.9076 61.0741 44.4331 61.1271V62.4532H44.3241C42.5263 62.4532 41.1098 63.6732 41.1098 66.1133V69.2429Z" fill="#1F3D87"/>
<path d="M49.6069 69.4019C47.1553 69.4019 45.412 67.5453 45.412 65.2644C45.412 62.9835 47.2098 61.127 49.6614 61.127C52.113 61.127 53.9108 62.9835 53.9108 65.2644C53.9108 67.5453 52.0585 69.4019 49.6069 69.4019ZM49.6069 62.1878C47.8636 62.1878 46.6105 63.567 46.6105 65.2644C46.6105 66.9618 47.9181 68.341 49.6069 68.341C51.3503 68.341 52.6033 66.9618 52.6033 65.2644C52.6578 63.567 51.3503 62.1878 49.6069 62.1878Z" fill="#1F3D87"/>
<path d="M59.7424 69.4019C57.3453 69.4019 55.5475 67.4923 55.5475 65.2644C55.5475 63.0366 57.3453 61.127 59.7424 61.127C61.2679 61.127 62.2485 61.7635 63.0112 62.5591L62.194 63.4079C61.5403 62.7713 60.832 62.1878 59.7424 62.1878C58.108 62.1878 56.855 63.567 56.855 65.2644C56.855 67.0149 58.1625 68.341 59.8514 68.341C60.8865 68.341 61.7037 67.8105 62.3574 67.174L63.1202 67.8636C62.2485 68.7653 61.2679 69.4019 59.7424 69.4019Z" fill="#1F3D87"/>
<path d="M68.4042 68.394C69.5483 68.394 70.311 67.9697 70.9648 67.2801L71.7275 67.9166C70.9103 68.8184 69.9297 69.4019 68.3498 69.4019C66.1161 69.4019 64.2638 67.7045 64.2638 65.2644C64.2638 62.9835 65.8982 61.127 68.1863 61.127C70.5834 61.127 71.9999 62.9835 71.9999 65.3175C71.9999 65.4235 71.9999 65.5296 71.9999 65.6888H65.5713C65.7347 67.4392 66.9878 68.394 68.4042 68.394ZM70.8014 64.8401C70.6924 63.4079 69.8207 62.1348 68.1863 62.1348C66.7699 62.1348 65.6803 63.3018 65.5168 64.8401H70.8014Z" fill="#1F3D87"/>
<path d="M76.8498 69.4019C75.7057 69.4019 74.3982 68.9775 73.472 68.2349L74.0713 67.3862C74.943 68.0227 75.9236 68.394 76.9043 68.394C77.8849 68.394 78.5931 67.9166 78.5931 67.121V67.0679C78.5931 66.2723 77.6125 65.954 76.5774 65.6888C75.3244 65.3175 73.9079 64.8931 73.9079 63.4609V63.4079C73.9079 62.0287 75.052 61.127 76.6863 61.127C77.667 61.127 78.7566 61.4452 79.6283 61.9757L79.0835 62.8774C78.3207 62.4 77.4491 62.1348 76.6863 62.1348C75.7057 62.1348 75.1064 62.6122 75.1064 63.3018V63.3548C75.1064 64.0974 76.0871 64.4157 77.1767 64.734C78.4297 65.1053 79.7917 65.5827 79.7917 67.0149V67.0679C79.7372 68.5001 78.4842 69.4019 76.8498 69.4019Z" fill="#1F3D87"/>
<path d="M84.534 69.4019C83.3899 69.4019 82.0824 68.9775 81.1562 68.2349L81.7555 67.3862C82.6272 68.0227 83.6078 68.394 84.5885 68.394C85.5691 68.394 86.2773 67.9166 86.2773 67.121V67.0679C86.2773 66.2723 85.2967 65.954 84.2616 65.6888C83.0086 65.3175 81.5921 64.8931 81.5921 63.4609V63.4079C81.5921 62.0287 82.7362 61.127 84.3705 61.127C85.3512 61.127 86.4408 61.4452 87.3124 61.9757L86.7676 62.8774C86.0049 62.4 85.1333 62.1348 84.3705 62.1348C83.3899 62.1348 82.7906 62.6122 82.7906 63.3018V63.3548C82.7906 64.0974 83.7713 64.4157 84.8609 64.734C86.1139 65.1053 87.4759 65.5827 87.4759 67.0149V67.0679C87.4214 68.5001 86.1684 69.4019 84.534 69.4019Z" fill="#1F3D87"/>
<path d="M95.4811 61.2855H96.6796V69.1891H95.4811V67.8099C94.9363 68.6586 94.1191 69.3482 92.7026 69.3482C90.7414 69.3482 89.5973 68.0751 89.5973 66.1655V61.2324H90.7958V65.8473C90.7958 67.3325 91.613 68.2343 93.0295 68.2343C94.3915 68.2343 95.4811 67.2264 95.4811 65.7412V61.2855Z" fill="#1F3D87"/>
<path d="M102.073 69.4019C100.928 69.4019 99.621 68.9775 98.6948 68.2349L99.2941 67.3862C100.166 68.0227 101.146 68.394 102.127 68.394C103.108 68.394 103.816 67.9166 103.816 67.121V67.0679C103.816 66.2723 102.835 65.954 101.8 65.6888C100.547 65.3175 99.1307 64.8931 99.1307 63.4609V63.4079C99.1307 62.0287 100.275 61.127 101.909 61.127C102.89 61.127 103.979 61.4452 104.851 61.9757L104.306 62.8774C103.544 62.4 102.672 62.1348 101.909 62.1348C100.928 62.1348 100.329 62.6122 100.329 63.3018V63.3548C100.329 64.0974 101.31 64.4157 102.399 64.734C103.652 65.1053 105.014 65.5827 105.014 67.0149V67.0679C104.96 68.5001 103.707 69.4019 102.073 69.4019Z" fill="#1F3D87"/>
<path d="M115.64 69.4019C113.242 69.4019 111.445 67.4923 111.445 65.2644C111.445 63.0366 113.242 61.127 115.64 61.127C117.165 61.127 118.146 61.7635 118.908 62.5591L118.091 63.4079C117.437 62.7713 116.729 62.1878 115.64 62.1878C114.005 62.1878 112.752 63.567 112.752 65.2644C112.752 67.0149 114.06 68.341 115.748 68.341C116.784 68.341 117.601 67.8105 118.255 67.174L119.017 67.8636C118.146 68.7653 117.165 69.4019 115.64 69.4019Z" fill="#1F3D87"/>
<path d="M124.303 68.394C125.447 68.394 126.21 67.9697 126.863 67.2801L127.626 67.9166C126.809 68.8184 125.828 69.4019 124.248 69.4019C122.015 69.4019 120.162 67.7045 120.162 65.2644C120.162 62.9835 121.797 61.127 124.085 61.127C126.482 61.127 127.898 62.9835 127.898 65.3175C127.898 65.4235 127.898 65.5296 127.898 65.6888H121.415C121.633 67.4392 122.886 68.394 124.303 68.394ZM126.7 64.8401C126.591 63.4079 125.719 62.1348 124.085 62.1348C122.668 62.1348 121.579 63.3018 121.415 64.8401H126.7Z" fill="#1F3D87"/>
<path d="M131.218 69.2429H130.02V61.2862H131.218V63.355C131.817 62.0289 133.016 61.0741 134.541 61.1271V62.4532H134.487C132.689 62.4532 131.273 63.6732 131.273 66.1133V69.2429H131.218Z" fill="#1F3D87"/>
<path d="M138.03 66.9612C138.03 67.916 138.575 68.2873 139.392 68.2873C139.828 68.2873 140.155 68.2342 140.591 68.0221V69.0299C140.155 69.2421 139.719 69.3482 139.12 69.3482C137.813 69.3482 136.832 68.7116 136.832 67.1203V62.3463H135.688V61.2854H136.832V58.8984H138.03V61.2854H140.591V62.3463H138.03V66.9612Z" fill="#1F3D87"/>
<path d="M142.822 58.2617H144.184V59.5878H142.822V58.2617ZM142.876 61.2852H144.075V69.1889H142.876V61.2852Z" fill="#1F3D87"/>
<path d="M151.162 61.3398V62.3477H148.601V69.2434H147.403V62.3477H146.259V61.3398H147.403V60.6503C147.403 58.8998 148.274 57.998 149.854 57.998C150.399 57.998 150.78 58.0511 151.216 58.2102V59.2181C150.78 59.112 150.454 59.0059 150.018 59.0059C149.092 59.0059 148.601 59.5363 148.601 60.7033V61.3398H151.162Z" fill="#1F3D87"/>
<path d="M152.739 58.2617H154.101V59.5878H152.739V58.2617ZM152.793 61.2852H153.992V69.1889H152.793V61.2852Z" fill="#1F3D87"/>
<path d="M160.422 68.3934C161.567 68.3934 162.329 67.9691 162.983 67.2795L163.746 67.916C162.929 68.8178 161.948 69.4012 160.368 69.4012C158.134 69.4012 156.282 67.7038 156.282 65.2638C156.282 62.9829 157.916 61.1263 160.205 61.1263C162.602 61.1263 164.018 62.9829 164.018 65.3168C164.018 65.4229 164.018 65.529 164.018 65.6881H157.535C157.753 67.4386 159.006 68.3934 160.422 68.3934ZM162.82 64.8394C162.711 63.4072 161.839 62.1342 160.205 62.1342C158.788 62.1342 157.698 63.3011 157.535 64.8394H162.82ZM159.496 60.1185L160.967 57.8906L162.22 58.4741L160.422 60.1185H159.496Z" fill="#1F3D87"/>
<path d="M46.5037 48.9273H50.9711C50.8621 47.1768 50.0994 45.5855 48.7374 44.3124L48.465 44.0472L48.6829 43.729C50.1539 41.7663 50.9711 39.3793 50.9711 36.8862C50.9711 30.4679 45.5776 25.2695 38.9855 25.2695C32.339 25.3226 27 30.5209 27 36.9393C27 43.3576 32.339 48.609 38.931 48.609C40.9468 48.609 42.9081 48.1316 44.8149 47.1238L45.0328 47.0177L45.2507 47.1768C45.9044 47.5481 46.3403 48.2377 46.5037 48.9273ZM38.931 44.2064C34.7906 44.2064 31.4129 40.9176 31.4129 36.8862C31.4129 32.8549 34.7906 29.5661 38.931 29.5661C43.126 29.5661 46.5037 32.8549 46.5037 36.8862C46.5037 40.9707 43.126 44.2064 38.931 44.2064Z" fill="#1F3D87"/>
<path d="M56.0366 31.3164V40.1748C56.0366 45.2671 59.5233 48.9802 64.372 48.9802C65.843 48.9802 67.3139 48.6089 68.6759 47.9193L69.3297 47.601V48.9802H73.4701V31.3164H69.3297V40.1748C69.3297 42.827 67.1505 44.9488 64.4265 44.9488C61.5391 44.9488 60.2316 42.4557 60.2316 40.1748V31.3164H56.0366Z" fill="#1F3D87"/>
<path d="M85.456 31.4219C80.4983 31.4219 76.4124 35.3472 76.4124 40.1742C76.4124 45.0012 80.4439 48.9795 85.456 48.9795C86.9814 48.9795 88.3979 48.6082 89.7054 47.9187L90.3592 47.6004V48.7674H94.4451V31.6871H90.3592V32.801L89.7054 32.4828C88.3979 31.7932 86.9269 31.4219 85.456 31.4219ZM85.456 45.0012C82.732 45.0012 80.5528 42.8794 80.5528 40.2272C80.5528 37.575 82.732 35.4532 85.456 35.4532C88.18 35.4532 90.3592 37.575 90.3592 40.2272C90.3592 42.8264 88.1255 45.0012 85.456 45.0012Z" fill="#1F3D87"/>
<path d="M102.291 25.959H98.0413V48.6089H102.291V25.959Z" fill="#1F3D87"/>
<path d="M107.957 48.6088H112.207V31.7938H107.957V48.6088ZM110.082 25.6406C108.774 25.6406 107.685 26.7015 107.685 27.9746C107.685 29.2476 108.774 30.2555 110.082 30.2555C111.389 30.2555 112.425 29.1946 112.425 27.9746C112.479 26.7015 111.389 25.6406 110.082 25.6406Z" fill="#1F3D87"/>
<path d="M125.172 30.9453C120.051 30.9453 115.91 34.9767 115.91 39.9628C115.91 44.949 120.051 48.9804 125.172 48.9804C130.293 48.9804 134.433 44.949 134.433 39.9628C134.433 34.9767 130.293 30.9453 125.172 30.9453ZM125.172 45.0021C122.339 45.0021 119.996 42.7212 119.996 39.9628C119.996 37.2045 122.339 34.9236 125.172 34.9236C128.005 34.9236 130.348 37.2045 130.348 39.9628C130.348 42.7742 128.005 45.0021 125.172 45.0021Z" fill="#1F3D87"/>
<path d="M138.794 54.3373H142.935V47.6007L143.588 47.919C144.896 48.6085 146.367 48.9268 147.892 48.9268C152.85 48.9268 156.881 45.0015 156.881 40.1745C156.881 35.3475 152.85 31.3691 147.892 31.3691C146.367 31.3691 144.896 31.7405 143.643 32.43L142.989 32.8013V31.6874H138.849V54.3373H138.794ZM147.838 45.0015C145.114 45.0015 142.935 42.8798 142.935 40.2275C142.935 37.5753 145.114 35.4536 147.838 35.4536C150.562 35.4536 152.741 37.5753 152.741 40.2275C152.741 42.8267 150.562 45.0015 147.838 45.0015Z" fill="#1F3D87"/>
<path d="M161.619 48.6088H165.869V31.7938H161.619V48.6088ZM163.798 25.6406C162.491 25.6406 161.401 26.7015 161.401 27.9746C161.401 29.2476 162.491 30.2555 163.798 30.2555C165.106 30.2555 166.141 29.1946 166.141 27.9746C166.196 26.7015 165.106 25.6406 163.798 25.6406Z" fill="#1F3D87"/>
<path d="M171.643 48.6094H195.778L171.643 72.6385V48.6094Z" fill="#DB0D15"/>
<path d="M171.643 48.6082H195.777L171.643 24.7383V48.6082Z" fill="#1F3D87"/>
<path d="M195.776 48.6094H219.91L195.776 72.6385V48.6094Z" fill="#1F3D87"/>
<path d="M195.776 48.6082H219.964L195.776 24.7383V48.6082Z" fill="#DB0D15"/>
</svg>
